<svg width="15" height="14" viewBox="0 0 15 14" fill="none" xmlns="http://www.w3.org/2000/svg">
    <path d="M7.66659 13.3333H4.33325L13.6666 4V13.3333H11.6666M7.66659 13.3333V12.6667M7.66659 13.3333H9.66659M11.6666 13.3333H9.66659M11.6666 13.3333V12.6667M9.66659 13.3333V12.6667M9.66659 10.6667H10.9999V9.33333" stroke="#0194F3" stroke-width="1.33333" stroke-linecap="round" stroke-linejoin="round"/>
    <path d="M5 4.6665L5.66667 5.33317M5 4.6665L3 6.6665M5 4.6665L7 2.6665M3 6.6665L3.66667 7.33317M3 6.6665L1 8.6665L3 10.6665L11 2.6665L9 0.666504L7 2.6665M7 2.6665L7.66667 3.33317" stroke="#03121A" stroke-width="1.33333" stroke-linecap="round" stroke-linejoin="round"/>
</svg>
