<svg width="32" height="39" viewBox="0 0 32 39" fill="none" xmlns="http://www.w3.org/2000/svg">
    <path d="M5.43626 25.4659H26.7873M5.09198 21.4482H27.1318M27.866 12.884L26.2583 31.6398C26.0805 33.7142 25.9915 34.7512 25.5305 35.5361C25.1246 36.2272 24.5219 36.7811 23.7986 37.1266C22.9772 37.5189 21.9362 37.519 19.8542 37.519H12.3711C10.289 37.519 9.24733 37.5189 8.42598 37.1266C7.70269 36.7811 7.09963 36.2272 6.69366 35.536C6.23265 34.7512 6.14373 33.7142 5.96592 31.6398L4.35828 12.884C4.25451 11.6733 4.20267 11.0678 4.40646 10.6007C4.5855 10.1903 4.89652 9.85158 5.29011 9.63815C5.7381 9.39522 6.34575 9.39522 7.56085 9.39522H24.6641C25.8792 9.39522 26.4871 9.39522 26.9351 9.63815C27.3286 9.85158 27.6389 10.1903 27.8179 10.6007C28.0217 11.0678 27.9698 11.6733 27.866 12.884ZM26.653 9.39522H5.57162C3.76044 9.39522 2.85487 9.39515 2.32884 9.01611C1.86503 8.68189 1.56583 8.16594 1.50576 7.59742C1.43764 6.95264 1.88733 6.16642 2.78593 4.59387C3.45724 3.41909 3.79289 2.83169 4.26396 2.40376C4.68509 2.02119 5.18256 1.73239 5.72366 1.55655C6.32892 1.35986 7.00524 1.35986 8.3583 1.35986H23.867C25.2201 1.35986 25.8966 1.35986 26.5018 1.55655C27.0429 1.73239 27.54 2.02119 27.9611 2.40376C28.4322 2.83169 28.7679 3.41909 29.4392 4.59387C30.3378 6.16642 30.7872 6.95265 30.7191 7.59742C30.659 8.16594 30.3603 8.68189 29.8964 9.01611C29.3704 9.39515 28.4642 9.39522 26.653 9.39522Z" stroke="#FF7500" stroke-width="2" stroke-linecap="round" stroke-linejoin="round"/>
</svg>
