<svg width="36" height="40" viewBox="0 0 36 40" fill="none" xmlns="http://www.w3.org/2000/svg">
    <path fill-rule="evenodd" clip-rule="evenodd" d="M16.83 0.790454C17.5922 0.556177 18.4073 0.556176 19.1695 0.790454L25.141 2.62579C28.2563 3.58328 31.2149 4.991 33.9229 6.80431C36.0292 8.21469 35.0308 11.5002 32.4959 11.5002H3.50357C0.968669 11.5002 -0.029727 8.21469 2.07658 6.80432C4.78464 4.991 7.74323 3.58328 10.8585 2.62579L16.83 0.790454ZM18.2882 3.65807C18.1002 3.60031 17.8993 3.60031 17.7113 3.65807L11.7399 5.49341C9.37826 6.21925 7.11558 7.22933 5.00114 8.50018H30.9984C28.8839 7.22933 26.6212 6.21925 24.2596 5.4934L18.2882 3.65807Z" fill="#FF6B00"/>
    <path d="M2.49976 38.0002C2.49976 37.1718 3.17133 36.5002 3.99976 36.5002H31.9998C32.8282 36.5002 33.4998 37.1718 33.4998 38.0002C33.4998 38.8286 32.8282 39.5002 31.9998 39.5002H3.99976C3.17133 39.5002 2.49976 38.8286 2.49976 38.0002Z" fill="#FF6B00"/>
    <path d="M6.49976 30.0002C6.49976 30.8286 7.17133 31.5002 7.99976 31.5002C8.82818 31.5002 9.49976 30.8286 9.49976 30.0002L9.49976 18.0002C9.49976 17.1718 8.82818 16.5002 7.99976 16.5002C7.17133 16.5002 6.49976 17.1718 6.49976 18.0002L6.49976 30.0002Z" fill="#FF6B00"/>
    <path d="M17.9998 31.5002C17.1713 31.5002 16.4998 30.8286 16.4998 30.0002L16.4998 18.0002C16.4998 17.1718 17.1713 16.5002 17.9998 16.5002C18.8282 16.5002 19.4998 17.1718 19.4998 18.0002V30.0002C19.4998 30.8286 18.8282 31.5002 17.9998 31.5002Z" fill="#FF6B00"/>
    <path d="M26.4998 30.0002C26.4998 30.8286 27.1713 31.5002 27.9998 31.5002C28.8282 31.5002 29.4998 30.8286 29.4998 30.0002V18.0002C29.4998 17.1718 28.8282 16.5002 27.9998 16.5002C27.1713 16.5002 26.4998 17.1718 26.4998 18.0002V30.0002Z" fill="#FF6B00"/>
</svg>
