<svg width="200" height="201" viewBox="0 0 200 201" fill="none" xmlns="http://www.w3.org/2000/svg">
    <g clip-path="url(#clip0_78_2600)">
        <path d="M100 200.5C44.8582 200.5 0 155.639 0 100.5C0 45.3605 44.8582 0.5 100 0.5C155.142 0.5 200 45.3605 200 100.5C200 155.639 155.142 200.5 100 200.5Z" fill="#FFA361"/>
        <path d="M200 100.5C200 45.3605 155.142 0.5 100 0.5V200.5C155.142 200.5 200 155.639 200 100.5Z" fill="#FFAF75"/>
        <path d="M99.9996 187.457C52.0504 187.457 13.043 148.447 13.043 100.5C13.043 52.5528 52.0504 13.5435 99.9996 13.5435C147.949 13.5435 186.956 52.5532 186.956 100.5C186.956 148.447 147.949 187.457 99.9996 187.457Z" fill="#FF7337"/>
        <path d="M186.957 100.5C186.957 52.5532 147.949 13.5435 100 13.5435V187.456C147.949 187.457 186.957 148.447 186.957 100.5Z" fill="#C94B4B"/>
        <path d="M125.768 56.6018L98.5686 83.4839V118.162C98.7307 118.017 98.9143 117.911 99.0707 117.757L143.356 73.9853C148.215 69.1852 148.215 61.4019 143.356 56.6014C138.498 51.7995 130.627 51.7995 125.768 56.6018Z" fill="#EDF0F2"/>
        <path d="M72.7381 144.398L99.3044 117.516V82.8381C99.1462 82.9828 98.9668 83.0888 98.814 83.2435L55.5594 127.015C50.8138 131.815 50.8138 139.598 55.5594 144.399C60.3047 149.201 67.9925 149.201 72.7381 144.398Z" fill="#EDF0F2"/>
        <path d="M73.2321 56.6018L100.431 83.4839V118.162C100.269 118.017 100.086 117.911 99.9293 117.757L55.644 73.9853C50.7853 69.1852 50.7853 61.4019 55.644 56.6014C60.5024 51.7995 68.3734 51.7995 73.2321 56.6018Z" fill="#EDF0F2"/>
        <path d="M126.262 144.398L99.6955 117.516V82.8381C99.8538 82.9828 100.033 83.0888 100.186 83.2435L143.441 127.015C148.186 131.815 148.186 139.598 143.441 144.399C138.695 149.201 131.007 149.201 126.262 144.398Z" fill="#EDF0F2"/>
    </g>
    <defs>
        <clipPath id="clip0_78_2600">
            <rect width="200" height="200" fill="white" transform="translate(0 0.5)"/>
        </clipPath>
    </defs>
</svg>
