<svg width="200" height="201" viewBox="0 0 200 201" fill="none" xmlns="http://www.w3.org/2000/svg">
    <g clip-path="url(#clip0_78_2572)">
        <path d="M100 200.5C44.8582 200.5 0 155.639 0 100.5C0 45.3605 44.8582 0.5 100 0.5C155.142 0.5 200 45.3605 200 100.5C200 155.639 155.142 200.5 100 200.5Z" fill="#D7EBFF"/>
        <path d="M200 100.5C200 45.3605 155.142 0.5 100 0.5V200.5C155.142 200.5 200 155.639 200 100.5Z" fill="#C4E2FF"/>
        <path d="M99.9996 187.457C52.0504 187.457 13.043 148.447 13.043 100.5C13.043 52.5528 52.0504 13.5435 99.9996 13.5435C147.949 13.5435 186.956 52.5532 186.956 100.5C186.956 148.447 147.949 187.457 99.9996 187.457Z" fill="#88CC2A"/>
        <path d="M186.957 100.5C186.957 52.5532 147.949 13.5435 100 13.5435V187.456C147.949 187.457 186.957 148.447 186.957 100.5Z" fill="#7FB335"/>
        <path d="M91.3041 139.63C87.9666 139.63 84.6295 138.356 82.0818 135.809L55.2053 108.932C50.11 103.839 50.11 95.5811 55.2053 90.4877C60.3006 85.3924 68.5545 85.3924 73.6498 90.4877L91.3041 108.14L128.524 70.9221C133.619 65.8268 141.873 65.8268 146.968 70.9221C152.063 76.015 152.063 84.2732 146.968 89.3666L100.526 135.809C97.9791 138.356 94.6416 139.63 91.3041 139.63Z" fill="white"/>
        <path d="M128.524 70.9231L100 99.4454V136.239C100.17 136.086 100.362 135.973 100.527 135.809L146.968 89.3672C152.064 84.2743 152.064 76.0161 146.968 70.9227C141.873 65.8278 133.619 65.8278 128.524 70.9231Z" fill="#EDF0F2"/>
    </g>
    <defs>
        <clipPath id="clip0_78_2572">
            <rect width="200" height="200" fill="white" transform="translate(0 0.5)"/>
        </clipPath>
    </defs>
</svg>
